{
  "accessors": [
    {
      "bufferView": 2,
      "componentType": 5126,
      "count": 25761,
      "max": [
        1.0558109283447266,
        3.512321949005127,
        1.0558104515075684
      ],
      "min": [
        -1.0558102130889893,
        -3.973643458721199e-08,
        -1.0558110475540161
      ],
      "type": "VEC3"
    },
    {
      "bufferView": 2,
      "byteOffset": 309132,
      "componentType": 5126,
      "count": 25761,
      "max": [
        1.0,
        1.0,
        1.0
      ],
      "min": [
        -1.0,
        -1.0,
        -1.0
      ],
      "type": "VEC3"
    },
    {
      "bufferView": 1,
      "componentType": 5126,
      "count": 25761,
      "max": [
        1.0000003576278687,
        1.0000001192092896
      ],
      "min": [
        0.0,
        0.0
      ],
      "type": "VEC2"
    },
    {
      "bufferView": 0,
      "componentType": 5125,
      "count": 90624,
      "type": "SCALAR"
    },
    {
      "bufferView": 2,
      "byteOffset": 618264,
      "componentType": 5126,
      "count": 23829,
      "max": [
        0.9935948848724365,
        36.97949981689453,
        0.9935948848724365
      ],
      "min": [
        -0.9935948848724365,
        0.0,
        -0.9935948848724365
      ],
      "type": "VEC3"
    },
    {
      "bufferView": 2,
      "byteOffset": 904212,
      "componentType": 5126,
      "count": 23829,
      "max": [
        1.0,
        1.0,
        1.0
      ],
      "min": [
        -1.0,
        -1.0,
        -1.0
      ],
      "type": "VEC3"
    },
    {
      "bufferView": 1,
      "byteOffset": 206088,
      "componentType": 5126,
      "count": 23829,
      "max": [
        1.0000001192092896,
        1.000000238418579
      ],
      "min": [
        0.7499999403953552,
        0.2499999850988388
      ],
      "type": "VEC2"
    },
    {
      "bufferView": 0,
      "byteOffset": 362496,
      "componentType": 5125,
      "count": 81216,
      "type": "SCALAR"
    },
    {
      "bufferView": 2,
      "byteOffset": 1190160,
      "componentType": 5126,
      "count": 24639,
      "max": [
        0.9935944676399231,
        36.25025177001953,
        0.9935954809188843
      ],
      "min": [
        -0.9935958385467529,
        0.0,
        -0.9935949444770813
      ],
      "type": "VEC3"
    },
    {
      "bufferView": 2,
      "byteOffset": 1485828,
      "componentType": 5126,
      "count": 24639,
      "max": [
        1.0,
        0.9999998807907104,
        1.0
      ],
      "min": [
        -1.0,
        -1.0,
        -1.0
      ],
      "type": "VEC3"
    },
    {
      "bufferView": 1,
      "byteOffset": 396720,
      "componentType": 5126,
      "count": 24639,
      "max": [
        1.0000001192092896,
        1.000000238418579
      ],
      "min": [
        0.0,
        0.011537185870110989
      ],
      "type": "VEC2"
    },
    {
      "bufferView": 0,
      "byteOffset": 687360,
      "componentType": 5125,
      "count": 84480,
      "type": "SCALAR"
    }
  ],
  "asset": {
    "extras": {
      "author": "Wasted (https://sketchfab.com/wastedmerc)",
      "license": "CC-BY-4.0 (http://creativecommons.org/licenses/by/4.0/)",
      "source": "https://sketchfab.com/3d-models/chess-pieces-a06ec9a1bea14787bd4bbcd0749a1726",
      "title": "Chess Pieces"
    },
    "generator": "Sketchfab-12.67.0",
    "version": "2.0"
  },
  "bufferViews": [
    {
      "buffer": 0,
      "byteLength": 1025280,
      "name": "floatBufferViews",
      "target": 34963
    },
    {
      "buffer": 0,
      "byteLength": 593832,
      "byteOffset": 1025280,
      "byteStride": 8,
      "name": "floatBufferViews",
      "target": 34962
    },
    {
      "buffer": 0,
      "byteLength": 1781496,
      "byteOffset": 1619112,
      "byteStride": 12,
      "name": "floatBufferViews",
      "target": 34962
    }
  ],
  "buffers": [
    {
      "byteLength": 3400608,
      "uri": "scene.bin"
    }
  ],
  "materials": [
    {
      "doubleSided": true,
      "name": "Material.001",
      "pbrMetallicRoughness": {
        "baseColorFactor": [
          0.752932,
          0.644913,
          0.621208,
          1.0
        ],
        "roughnessFactor": 0.0
      }
    }
  ],
  "meshes": [
    {
      "name": "Object_0",
      "primitives": [
        {
          "attributes": {
            "NORMAL": 1,
            "POSITION": 0,
            "TEXCOORD_0": 2
          },
          "indices": 3,
          "material": 0,
          "mode": 4
        }
      ]
    },
    {
      "name": "Object_1",
      "primitives": [
        {
          "attributes": {
            "NORMAL": 5,
            "POSITION": 4,
            "TEXCOORD_0": 6
          },
          "indices": 7,
          "material": 0,
          "mode": 4
        }
      ]
    },
    {
      "name": "Object_2",
      "primitives": [
        {
          "attributes": {
            "NORMAL": 9,
            "POSITION": 8,
            "TEXCOORD_0": 10
          },
          "indices": 11,
          "material": 0,
          "mode": 4
        }
      ]
    }
  ],
  "nodes": [
    {
      "children": [
        1
      ],
      "matrix": [
        1.0,
        0.0,
        0.0,
        0.0,
        0.0,
        2.220446049250313e-16,
        -1.0,
        0.0,
        0.0,
        1.0,
        2.220446049250313e-16,
        0.0,
        0.0,
        -9.860761315262648e-32,
        4.440892098500626e-16,
        1.0
      ],
      "name": "Sketchfab_model"
    },
    {
      "children": [
        2
      ],
      "name": "root"
    },
    {
      "children": [
        3,
        5,
        7
      ],
      "matrix": [
        1.0,
        0.0,
        0.0,
        0.0,
        0.0,
        2.220446049250313e-16,
        1.0,
        0.0,
        0.0,
        -1.0,
        2.220446049250313e-16,
        0.0,
        0.0,
        0.0,
        0.0,
        1.0
      ],
      "name": "GLTF_SceneRootNode"
    },
    {
      "children": [
        4
      ],
      "matrix": [
        1.0,
        0.0,
        0.0,
        0.0,
        0.0,
        1.0,
        0.0,
        0.0,
        0.0,
        0.0,
        1.0,
        0.0,
        0.017781972885131836,
        0.0,
        0.0,
        1.0
      ],
      "name": "Sphere_1"
    },
    {
      "mesh": 0,
      "name": "Object_4"
    },
    {
      "children": [
        6
      ],
      "matrix": [
        1.0,
        0.0,
        0.0,
        0.0,
        0.0,
        0.15043550729751587,
        0.0,
        0.0,
        0.0,
        0.0,
        1.0,
        0.0,
        -2.4106059074401855,
        0.0,
        0.0,
        1.0
      ],
      "name": "Cylinder_2"
    },
    {
      "mesh": 1,
      "name": "Object_6"
    },
    {
      "children": [
        8
      ],
      "matrix": [
        1.0,
        0.0,
        0.0,
        0.0,
        0.0,
        0.15043550729751587,
        0.0,
        0.0,
        0.0,
        0.0,
        1.0,
        0.0,
        2.6085450649261475,
        0.0,
        0.0,
        1.0
      ],
      "name": "Cylinder.001_3"
    },
    {
      "mesh": 2,
      "name": "Object_8"
    }
  ],
  "scene": 0,
  "scenes": [
    {
      "name": "Sketchfab_Scene",
      "nodes": [
        0
      ]
    }
  ]
}
